<?xml version="1.0" encoding="UTF-8" standalone="no"?>
<!DOCTYPE svg>
<svg width="706.701" height="78.5" viewBox="0 0 706.701 78.5" xmlns="http://www.w3.org/2000/svg"><g id="svgGroup" stroke-linecap="round" fill-rule="evenodd" font-size="9pt" stroke="#160d91" stroke-width="0.25mm" fill="#160d91"><path d="M 450.601 46.8 L 471.101 77.3 L 460.701 77.3 L 441.801 47.8 L 432.501 47.8 L 432.501 77.3 L 423.901 77.3 L 423.901 8.4 L 441.501 8.4 A 53.646 53.646 0 0 1 448.55 8.832 Q 456.245 9.855 460.851 13.3 A 15.875 15.875 0 0 1 467.087 23.825 A 24.107 24.107 0 0 1 467.401 27.8 Q 467.401 35.2 462.801 40.05 A 22.696 22.696 0 0 1 455.162 45.28 A 30.094 30.094 0 0 1 450.601 46.8 Z M 49.501 14 L 44.601 19.7 A 21.809 21.809 0 0 0 30.493 14.603 A 27.407 27.407 0 0 0 30.101 14.6 A 20.822 20.822 0 0 0 22.381 15.986 A 19.013 19.013 0 0 0 14.951 21.35 Q 9.325 27.842 9.109 41.685 A 71.609 71.609 0 0 0 9.101 42.8 A 59.455 59.455 0 0 0 9.551 50.396 Q 10.631 58.749 14.294 63.566 A 17.106 17.106 0 0 0 14.801 64.2 A 18.509 18.509 0 0 0 28.253 70.941 A 25.128 25.128 0 0 0 30.001 71 A 30.262 30.262 0 0 0 33.978 70.753 Q 36.022 70.481 37.769 69.913 A 17.119 17.119 0 0 0 38.901 69.5 Q 42.601 68 46.001 65.3 L 50.501 70.9 A 25.844 25.844 0 0 1 37.146 77.731 A 37.365 37.365 0 0 1 29.901 78.4 A 29.854 29.854 0 0 1 19.361 76.57 A 27.827 27.827 0 0 1 14.601 74.25 A 27.273 27.273 0 0 1 5.605 65.191 A 34.345 34.345 0 0 1 3.901 62.1 A 36.777 36.777 0 0 1 0.916 52.973 Q 0.115 48.861 0.015 44.157 A 63.771 63.771 0 0 1 0.001 42.8 Q 0.001 32.024 3.657 24.165 A 32.825 32.825 0 0 1 3.951 23.55 A 31.84 31.84 0 0 1 8.58 16.512 A 26.054 26.054 0 0 1 14.651 11.4 Q 21.401 7.3 29.501 7.3 A 41.811 41.811 0 0 1 34.404 7.573 Q 37.769 7.971 40.501 8.95 A 30.957 30.957 0 0 1 46.661 12.002 A 38.012 38.012 0 0 1 49.501 14 Z M 303.701 77.3 L 303.701 24.6 L 310.901 24.6 L 311.601 32 Q 314.701 28 319.451 25.75 A 23.324 23.324 0 0 1 325.557 23.791 A 20.619 20.619 0 0 1 329.001 23.5 A 20.168 20.168 0 0 1 334.947 24.301 Q 341.484 26.319 343.194 33.424 A 24.311 24.311 0 0 1 343.801 39.1 L 343.801 77.3 L 335.401 77.3 L 335.401 45.3 Q 335.401 40.187 334.912 37.177 A 19.459 19.459 0 0 0 334.751 36.3 A 10.506 10.506 0 0 0 334.156 34.358 Q 333.447 32.685 332.201 31.7 A 5.964 5.964 0 0 0 330.416 30.759 Q 328.781 30.2 326.401 30.2 A 13.95 13.95 0 0 0 318.837 32.448 A 17.053 17.053 0 0 0 318.301 32.8 A 23.189 23.189 0 0 0 312.926 37.846 A 21.745 21.745 0 0 0 312.101 39 L 312.101 77.3 L 303.701 77.3 Z M 223.201 29.3 L 219.401 35.1 A 28.306 28.306 0 0 0 212.725 31.629 A 26.653 26.653 0 0 0 212.501 31.55 A 21.808 21.808 0 0 0 208.365 30.575 A 30.051 30.051 0 0 0 204.201 30.3 A 28.167 28.167 0 0 0 200.326 30.543 Q 192.801 31.594 192.801 37.2 A 7.544 7.544 0 0 0 192.976 38.874 A 5.229 5.229 0 0 0 194.051 41.1 A 6.649 6.649 0 0 0 195.211 42.175 Q 195.826 42.63 196.617 43.046 A 16.797 16.797 0 0 0 198.151 43.75 Q 201.001 44.9 206.701 46.5 A 55.141 55.141 0 0 1 211.651 48.06 Q 216.546 49.879 219.453 52.269 A 16.499 16.499 0 0 1 219.551 52.35 A 11.455 11.455 0 0 1 223.406 58.858 A 17.653 17.653 0 0 1 223.801 62.7 Q 223.801 70.441 217.656 74.342 A 16.43 16.43 0 0 1 217.401 74.5 A 25.75 25.75 0 0 1 209.283 77.654 Q 205.769 78.4 201.701 78.4 A 35.698 35.698 0 0 1 191.986 77.137 A 28.032 28.032 0 0 1 181.101 71.3 L 185.801 65.8 A 25.965 25.965 0 0 0 192.592 69.752 A 29.256 29.256 0 0 0 193.101 69.95 Q 197.201 71.5 201.701 71.5 Q 205.957 71.5 208.956 70.343 A 11.832 11.832 0 0 0 211.201 69.2 A 8.726 8.726 0 0 0 213.193 67.442 A 6.659 6.659 0 0 0 214.701 63.1 A 12.337 12.337 0 0 0 214.584 61.354 Q 214.377 59.907 213.801 58.85 A 5.091 5.091 0 0 0 212.872 57.655 Q 211.896 56.701 210.226 55.863 A 16.828 16.828 0 0 0 210.201 55.85 A 21.48 21.48 0 0 0 208.351 55.044 Q 206.45 54.31 203.737 53.56 A 88.838 88.838 0 0 0 202.001 53.1 A 69.581 69.581 0 0 1 196.961 51.651 Q 192.071 50.027 189.08 48.027 A 17.7 17.7 0 0 1 188.401 47.55 A 10.538 10.538 0 0 1 184.196 40.46 A 16.022 16.022 0 0 1 184.001 37.9 A 12.689 12.689 0 0 1 185.209 32.306 Q 186.579 29.472 189.501 27.4 Q 194.324 23.98 201.839 23.559 A 38.673 38.673 0 0 1 204.001 23.5 A 35.168 35.168 0 0 1 214.898 25.137 A 30.66 30.66 0 0 1 223.201 29.3 Z M 166.701 24.6 L 165.501 42.5 L 158.701 42.5 L 158.701 31.2 L 158.201 31.2 A 14.639 14.639 0 0 0 145.968 37.662 Q 144.046 40.25 142.547 43.876 A 46.909 46.909 0 0 0 140.901 48.6 L 140.901 70.8 L 151.601 70.8 L 151.601 77.3 L 124.201 77.3 L 124.201 70.8 L 132.501 70.8 L 132.501 31.1 L 124.201 31.1 L 124.201 24.6 L 138.801 24.6 L 140.401 37.1 A 36.249 36.249 0 0 1 142.976 32.478 Q 145.269 29.025 148.051 26.9 A 16.161 16.161 0 0 1 154.717 23.939 A 22.791 22.791 0 0 1 159.301 23.5 A 22.786 22.786 0 0 1 162.235 23.703 Q 164.305 23.973 166.701 24.6 Z M 706.701 24.6 L 705.501 42.5 L 698.701 42.5 L 698.701 31.2 L 698.201 31.2 A 14.639 14.639 0 0 0 685.968 37.662 Q 684.046 40.25 682.547 43.876 A 46.909 46.909 0 0 0 680.901 48.6 L 680.901 70.8 L 691.601 70.8 L 691.601 77.3 L 664.201 77.3 L 664.201 70.8 L 672.501 70.8 L 672.501 31.1 L 664.201 31.1 L 664.201 24.6 L 678.801 24.6 L 680.401 37.1 A 36.249 36.249 0 0 1 682.976 32.478 Q 685.269 29.025 688.051 26.9 A 16.161 16.161 0 0 1 694.717 23.939 A 22.791 22.791 0 0 1 699.301 23.5 A 22.786 22.786 0 0 1 702.235 23.703 Q 704.305 23.973 706.701 24.6 Z M 105.801 72.5 L 103.701 78.5 Q 96.001 77.5 94.101 71 Q 91.301 74.6 87.051 76.5 A 21.928 21.928 0 0 1 80.141 78.282 A 26.657 26.657 0 0 1 77.601 78.4 Q 70.221 78.4 65.764 74.561 A 14.463 14.463 0 0 1 65.151 74 A 14.652 14.652 0 0 1 60.867 65.609 A 20.911 20.911 0 0 1 60.601 62.2 A 16.422 16.422 0 0 1 61.55 56.489 Q 63.056 52.399 66.951 49.7 A 21.515 21.515 0 0 1 72.892 46.893 Q 78.042 45.3 85.201 45.3 L 93.001 45.3 L 93.001 41 A 15.394 15.394 0 0 0 92.733 38.026 Q 92.404 36.359 91.671 35.09 A 7.202 7.202 0 0 0 89.801 32.95 A 10.501 10.501 0 0 0 86.602 31.325 Q 85.16 30.861 83.41 30.658 A 25.312 25.312 0 0 0 80.501 30.5 A 32.376 32.376 0 0 0 74.925 31.017 Q 72.317 31.474 69.455 32.334 A 61.843 61.843 0 0 0 66.801 33.2 L 64.501 26.8 A 61.826 61.826 0 0 1 72.934 24.432 A 44.842 44.842 0 0 1 81.801 23.5 A 32.838 32.838 0 0 1 87.356 23.94 Q 90.387 24.461 92.793 25.6 A 15.301 15.301 0 0 1 96.451 28 A 14.743 14.743 0 0 1 101.18 36.691 A 21.638 21.638 0 0 1 101.501 40.5 L 101.501 65.8 A 15.274 15.274 0 0 0 101.579 67.408 Q 101.781 69.307 102.501 70.35 Q 103.36 71.596 105.179 72.289 A 9.643 9.643 0 0 0 105.801 72.5 Z M 639.801 66.7 L 643.701 72.3 A 27.91 27.91 0 0 1 635.913 76.569 A 31.679 31.679 0 0 1 635.251 76.8 Q 630.501 78.4 625.701 78.4 Q 614.301 78.4 607.951 70.95 Q 601.929 63.886 601.618 52.281 A 47.699 47.699 0 0 1 601.601 51 A 38.206 38.206 0 0 1 602.391 43.072 A 30.756 30.756 0 0 1 604.401 36.85 A 24.292 24.292 0 0 1 608.572 30.38 A 21.67 21.67 0 0 1 612.401 27.05 A 20.449 20.449 0 0 1 622.594 23.57 A 25.512 25.512 0 0 1 624.501 23.5 Q 634.501 23.5 640.251 30.45 A 23.595 23.595 0 0 1 644.737 39.26 Q 645.685 42.646 645.922 46.657 A 46.533 46.533 0 0 1 646.001 49.4 Q 646.001 51.7 645.801 53.9 L 610.401 53.9 Q 610.604 59.797 612.622 63.718 A 13.73 13.73 0 0 0 614.951 67 A 14.214 14.214 0 0 0 625.196 71.394 A 18.823 18.823 0 0 0 625.701 71.4 A 23.049 23.049 0 0 0 630.103 70.995 A 19.209 19.209 0 0 0 632.851 70.25 A 27.496 27.496 0 0 0 635.996 68.897 Q 637.835 67.975 639.801 66.7 Z M 510.401 24.6 L 510.401 70.6 L 525.201 70.6 L 525.201 77.3 L 485.801 77.3 L 485.801 70.6 L 502.001 70.6 L 502.001 31.3 L 486.301 31.3 L 486.301 24.6 L 510.401 24.6 Z M 587.801 24.6 L 564.201 48.4 L 590.601 77.3 L 579.501 77.3 L 553.601 48.5 L 577.001 24.6 L 587.801 24.6 Z M 552.701 2.4 L 552.701 77.3 L 544.301 77.3 L 544.301 3.4 L 552.701 2.4 Z M 270.841 24.409 A 25.776 25.776 0 0 0 263.801 23.5 Q 252.901 23.5 246.951 31 A 23.964 23.964 0 0 0 244.994 33.874 Q 242.743 37.756 241.761 42.703 A 42.627 42.627 0 0 0 241.001 51 Q 241.001 57.152 242.385 62.048 A 25.097 25.097 0 0 0 246.901 71.05 A 18.739 18.739 0 0 0 256.583 77.472 A 25.785 25.785 0 0 0 263.701 78.4 A 28.115 28.115 0 0 0 266.721 78.243 A 19.381 19.381 0 0 0 280.451 70.85 A 24.327 24.327 0 0 0 282.204 68.308 Q 284.605 64.307 285.632 59.186 A 42.128 42.128 0 0 0 286.401 50.9 Q 286.401 44.649 284.983 39.695 A 25.108 25.108 0 0 0 280.551 30.85 A 18.577 18.577 0 0 0 270.841 24.409 Z M 263.801 30.4 A 14.713 14.713 0 0 0 259.515 30.989 A 10.829 10.829 0 0 0 253.501 35.5 Q 250.101 40.6 250.101 51 A 51.695 51.695 0 0 0 250.366 56.427 Q 251.043 62.821 253.451 66.45 A 10.91 10.91 0 0 0 261.434 71.351 A 16.583 16.583 0 0 0 263.701 71.5 A 14.901 14.901 0 0 0 267.847 70.957 A 10.68 10.68 0 0 0 273.951 66.45 A 16.378 16.378 0 0 0 275.858 62.334 Q 277.156 58.247 277.286 52.259 A 62.512 62.512 0 0 0 277.301 50.9 A 51.695 51.695 0 0 0 277.036 45.473 Q 276.358 39.08 273.951 35.45 A 10.864 10.864 0 0 0 266.036 30.549 A 16.14 16.14 0 0 0 263.801 30.4 Z M 442.501 15.4 L 432.501 15.4 L 432.501 41 L 442.601 41 A 30.072 30.072 0 0 0 446.945 40.708 Q 451.504 40.041 454.251 37.85 A 9.79 9.79 0 0 0 457.445 33.12 Q 457.988 31.466 458.141 29.442 A 21.813 21.813 0 0 0 458.201 27.8 A 18.027 18.027 0 0 0 457.883 24.294 Q 457.487 22.297 456.595 20.783 A 8.542 8.542 0 0 0 454.401 18.3 Q 450.601 15.4 442.501 15.4 Z M 610.401 47.5 L 637.801 47.5 A 32.122 32.122 0 0 0 637.406 42.694 Q 636.607 37.825 634.201 34.8 A 11.34 11.34 0 0 0 625.904 30.453 A 15.802 15.802 0 0 0 624.601 30.4 A 13.891 13.891 0 0 0 619.703 31.233 A 12.297 12.297 0 0 0 614.701 34.75 Q 611.708 38.177 610.762 44.116 A 34.624 34.624 0 0 0 610.401 47.5 Z M 93.001 64.6 L 93.001 51.1 L 85.401 51.1 Q 78.213 51.1 74.467 53.15 A 9.429 9.429 0 0 0 73.301 53.9 A 9.087 9.087 0 0 0 69.753 60.014 A 13.683 13.683 0 0 0 69.601 62.1 A 14.262 14.262 0 0 0 70.101 66.058 Q 71.385 70.495 75.96 71.674 A 15.022 15.022 0 0 0 79.701 72.1 Q 83.601 72.1 87.151 70.1 Q 90.701 68.1 93.001 64.6 Z M 505.683 0.242 A 7.709 7.709 0 0 0 503.701 0 A 7.756 7.756 0 0 0 502.493 0.091 A 5.538 5.538 0 0 0 499.351 1.65 A 5.418 5.418 0 0 0 497.994 3.878 A 6.68 6.68 0 0 0 497.701 5.9 A 7.575 7.575 0 0 0 497.737 6.651 A 5.569 5.569 0 0 0 499.351 10.15 A 5.409 5.409 0 0 0 501.751 11.549 A 7.174 7.174 0 0 0 503.701 11.8 A 8.152 8.152 0 0 0 505.15 11.677 A 5.73 5.73 0 0 0 508.201 10.15 A 5.392 5.392 0 0 0 509.598 7.925 A 6.498 6.498 0 0 0 509.901 5.9 A 7.487 7.487 0 0 0 509.879 5.323 A 5.532 5.532 0 0 0 508.201 1.65 A 5.618 5.618 0 0 0 505.683 0.242 Z" vector-effect="non-scaling-stroke"/></g></svg>
