<?xml version="1.0" encoding="UTF-8" standalone="no"?>
<!DOCTYPE svg>
<svg width="820.2" height="76.1" viewBox="0 0 820.2 76.1" xmlns="http://www.w3.org/2000/svg"><g id="svgGroup" stroke-linecap="round" fill-rule="evenodd" font-size="9pt" stroke="#160d91" stroke-width="0.25mm" fill="160d91" style="stroke:#000;stroke-width:0.25mm;fill:none"><path d="M 290.5 67.3 L 295.7 61.4 Q 299.5 65 304.15 66.9 A 25.101 25.101 0 0 0 310.148 68.486 A 33.183 33.183 0 0 0 314.8 68.8 Q 321.6 68.8 326.2 65.5 A 10.638 10.638 0 0 0 330.706 57.709 A 15.172 15.172 0 0 0 330.8 56 A 15.578 15.578 0 0 0 330.617 53.544 Q 330.401 52.189 329.927 51.07 A 8.496 8.496 0 0 0 329.5 50.2 Q 328.448 48.339 326.118 46.805 A 17.842 17.842 0 0 0 324.95 46.1 Q 321.7 44.3 315.8 42.6 A 81.229 81.229 0 0 1 309.357 40.425 Q 302.881 37.909 299.1 34.85 A 14.474 14.474 0 0 1 293.657 24.231 A 20.25 20.25 0 0 1 293.6 22.7 Q 293.6 17.6 296.4 13.5 A 17.411 17.411 0 0 1 302.161 8.233 A 21.956 21.956 0 0 1 304.3 7.15 A 26.189 26.189 0 0 1 311.409 5.191 A 33.598 33.598 0 0 1 315.9 4.9 Q 322.7 4.9 328.05 6.9 Q 333.4 8.9 337.9 12.8 L 332.7 18.4 Q 325.6 12.2 316.2 12.2 Q 311.02 12.2 307.406 14.138 A 13.434 13.434 0 0 0 306.3 14.8 A 8.321 8.321 0 0 0 302.505 20.824 A 11.45 11.45 0 0 0 302.4 22.4 Q 302.4 25.4 304 27.5 Q 305.131 28.985 307.312 30.32 A 23.532 23.532 0 0 0 309.3 31.4 Q 312.642 33.026 318.433 34.734 A 126.31 126.31 0 0 0 319.7 35.1 A 58.376 58.376 0 0 1 325.843 37.226 Q 328.859 38.475 331.269 39.956 A 26.522 26.522 0 0 1 334.65 42.4 A 14.356 14.356 0 0 1 339.162 49.744 Q 339.808 52.123 339.888 54.975 A 29.148 29.148 0 0 1 339.9 55.8 A 20.308 20.308 0 0 1 339.016 61.888 A 17.605 17.605 0 0 1 336.9 66.35 A 18.58 18.58 0 0 1 331.193 71.857 A 23.967 23.967 0 0 1 328.2 73.45 A 28.113 28.113 0 0 1 321.551 75.44 Q 318.556 75.965 315.155 75.998 A 47.155 47.155 0 0 1 314.7 76 A 43.364 43.364 0 0 1 306.69 75.288 A 35.395 35.395 0 0 1 301.05 73.75 A 30.956 30.956 0 0 1 293.113 69.508 A 28.28 28.28 0 0 1 290.5 67.3 Z M 64.6 22.2 L 64.6 59.6 A 19.21 19.21 0 0 0 64.77 62.251 Q 65.204 65.354 66.743 67.043 A 5.903 5.903 0 0 0 66.75 67.05 Q 68.494 68.956 71.849 69.316 A 15.485 15.485 0 0 0 73.5 69.4 Q 77.7 69.4 81.6 67 A 19.671 19.671 0 0 0 86.38 62.93 A 18.17 18.17 0 0 0 87.8 61 L 87.8 22.2 L 96.2 22.2 L 96.2 74.9 L 89 74.9 L 88.3 67.8 Q 85.2 71.7 80.65 73.85 A 22.027 22.027 0 0 1 73.813 75.857 A 20.421 20.421 0 0 1 71.4 76 Q 66.075 76 62.59 73.984 A 11.493 11.493 0 0 1 60.05 72 A 12.917 12.917 0 0 1 57.018 66.67 Q 56.408 64.646 56.253 62.208 A 26.932 26.932 0 0 1 56.2 60.5 L 56.2 22.2 L 64.6 22.2 Z M 8.7 13.2 L 8.7 37.3 L 35.7 37.3 L 35.7 44.3 L 8.7 44.3 L 8.7 74.9 L 0 74.9 L 0 6 L 40.6 6 L 39.6 13.2 L 8.7 13.2 Z M 366.2 60.2 L 366.2 28.8 L 354.1 28.8 L 354.1 22.2 L 366.2 22.2 L 366.2 10.3 L 374.6 9.3 L 374.6 22.2 L 392.9 22.2 L 391.8 28.8 L 374.6 28.8 L 374.6 60.1 A 13.397 13.397 0 0 0 374.823 62.629 Q 375.331 65.27 377 66.8 Q 379.309 68.916 384.3 68.997 A 24.748 24.748 0 0 0 384.7 69 Q 390.1 69 394.8 66.5 L 398.1 72.2 A 18.599 18.599 0 0 1 394.907 73.887 A 25.394 25.394 0 0 1 391.55 75 Q 387.7 76 383.9 76 A 25.5 25.5 0 0 1 378.619 75.486 Q 375.324 74.788 372.813 73.144 A 14.525 14.525 0 0 1 370.9 71.65 Q 366.2 67.3 366.2 60.2 Z M 820.2 22.2 L 801 74.9 L 791.3 74.9 L 772.2 22.2 L 781.2 22.2 L 796.4 67.3 L 811.4 22.2 L 820.2 22.2 Z M 687.8 0 L 696.2 1 L 696.2 74.9 L 688.8 74.9 L 688 68 A 21.888 21.888 0 0 1 684.717 71.64 A 17.666 17.666 0 0 1 681.3 74 Q 677.5 76 673.1 76 A 21.666 21.666 0 0 1 666.81 75.137 A 16.041 16.041 0 0 1 658.05 68.7 Q 654.065 62.94 653.225 53.755 A 56.62 56.62 0 0 1 653 48.6 A 42.823 42.823 0 0 1 653.665 40.892 A 33.548 33.548 0 0 1 655.5 34.45 A 25.494 25.494 0 0 1 658.482 28.952 A 20.432 20.432 0 0 1 662.65 24.65 A 17.309 17.309 0 0 1 672.602 21.123 A 21.684 21.684 0 0 1 673.6 21.1 A 19.563 19.563 0 0 1 680.827 22.394 A 17.894 17.894 0 0 1 687.8 27.4 L 687.8 0 Z M 458.3 70.1 L 456.2 76.1 Q 448.5 75.1 446.6 68.6 Q 443.8 72.2 439.55 74.1 A 21.928 21.928 0 0 1 432.641 75.881 A 26.657 26.657 0 0 1 430.1 76 Q 422.72 76 418.264 72.16 A 14.463 14.463 0 0 1 417.65 71.6 A 14.652 14.652 0 0 1 413.367 63.208 A 20.911 20.911 0 0 1 413.1 59.8 A 16.422 16.422 0 0 1 414.05 54.088 Q 415.556 49.998 419.45 47.3 A 21.515 21.515 0 0 1 425.391 44.492 Q 430.541 42.9 437.7 42.9 L 445.5 42.9 L 445.5 38.6 A 15.394 15.394 0 0 0 445.233 35.626 Q 444.904 33.959 444.171 32.69 A 7.202 7.202 0 0 0 442.3 30.55 A 10.501 10.501 0 0 0 439.101 28.924 Q 437.66 28.461 435.909 28.258 A 25.312 25.312 0 0 0 433 28.1 A 32.376 32.376 0 0 0 427.425 28.617 Q 424.817 29.074 421.955 29.934 A 61.843 61.843 0 0 0 419.3 30.8 L 417 24.4 A 61.826 61.826 0 0 1 425.433 22.031 A 44.842 44.842 0 0 1 434.3 21.1 A 32.838 32.838 0 0 1 439.856 21.539 Q 442.887 22.061 445.292 23.2 A 15.301 15.301 0 0 1 448.95 25.6 A 14.743 14.743 0 0 1 453.679 34.291 A 21.638 21.638 0 0 1 454 38.1 L 454 63.4 A 15.274 15.274 0 0 0 454.079 65.008 Q 454.28 66.906 455 67.95 Q 455.859 69.196 457.679 69.888 A 9.643 9.643 0 0 0 458.3 70.1 Z M 136.8 1 L 136.8 61.9 A 8.181 8.181 0 0 0 137.342 65.001 Q 138.971 69 145.5 69 A 21.483 21.483 0 0 0 150.164 68.462 A 29.463 29.463 0 0 0 154.3 67.2 L 156.5 73.3 A 21.068 21.068 0 0 1 151.07 75.282 Q 147.867 76 144 76 A 20.96 20.96 0 0 1 139.17 75.474 A 14.331 14.331 0 0 1 132.65 72.1 A 12.865 12.865 0 0 1 128.618 64.392 A 18.44 18.44 0 0 1 128.4 61.5 L 128.4 7.7 L 112.2 7.7 L 112.2 1 L 136.8 1 Z M 196.8 1 L 196.8 61.9 A 8.181 8.181 0 0 0 197.342 65.001 Q 198.971 69 205.5 69 A 21.483 21.483 0 0 0 210.164 68.462 A 29.463 29.463 0 0 0 214.3 67.2 L 216.5 73.3 A 21.068 21.068 0 0 1 211.07 75.282 Q 207.867 76 204 76 A 20.96 20.96 0 0 1 199.17 75.474 A 14.331 14.331 0 0 1 192.65 72.1 A 12.865 12.865 0 0 1 188.618 64.392 A 18.44 18.44 0 0 1 188.4 61.5 L 188.4 7.7 L 172.2 7.7 L 172.2 1 L 196.8 1 Z M 752.3 64.3 L 756.2 69.9 A 27.91 27.91 0 0 1 748.413 74.169 A 31.679 31.679 0 0 1 747.75 74.4 Q 743 76 738.2 76 Q 726.8 76 720.45 68.55 Q 714.429 61.486 714.117 49.88 A 47.699 47.699 0 0 1 714.1 48.6 A 38.206 38.206 0 0 1 714.89 40.672 A 30.756 30.756 0 0 1 716.9 34.45 A 24.292 24.292 0 0 1 721.071 27.98 A 21.67 21.67 0 0 1 724.9 24.65 A 20.449 20.449 0 0 1 735.093 21.17 A 25.512 25.512 0 0 1 737 21.1 Q 747 21.1 752.75 28.05 A 23.595 23.595 0 0 1 757.237 36.86 Q 758.184 40.246 758.421 44.257 A 46.533 46.533 0 0 1 758.5 47 Q 758.5 49.3 758.3 51.5 L 722.9 51.5 Q 723.103 57.396 725.121 61.317 A 13.73 13.73 0 0 0 727.45 64.6 A 14.214 14.214 0 0 0 737.696 68.993 A 18.823 18.823 0 0 0 738.2 69 A 23.049 23.049 0 0 0 742.602 68.595 A 19.209 19.209 0 0 0 745.35 67.85 A 27.496 27.496 0 0 0 748.496 66.497 Q 750.334 65.575 752.3 64.3 Z M 513.8 64.2 L 517.8 69.7 A 22.087 22.087 0 0 1 513.184 72.789 A 28.721 28.721 0 0 1 509.6 74.3 A 31.211 31.211 0 0 1 503.887 75.719 A 26.142 26.142 0 0 1 500.1 76 A 29.874 29.874 0 0 1 492.394 75.061 A 21.051 21.051 0 0 1 481.85 68.65 A 24.792 24.792 0 0 1 476.381 58.106 Q 475.435 54.407 475.317 50.056 A 46.241 46.241 0 0 1 475.3 48.8 Q 475.3 40.9 478.25 34.6 Q 481.2 28.3 486.8 24.7 A 22.513 22.513 0 0 1 495.824 21.401 A 29.442 29.442 0 0 1 500.1 21.1 A 28.036 28.036 0 0 1 510.554 23.008 A 26.096 26.096 0 0 1 517.7 27.3 L 513.6 32.8 A 30.581 30.581 0 0 0 508.027 29.822 Q 503.994 28.206 500.031 28.2 A 19.476 19.476 0 0 0 500 28.2 Q 492.9 28.2 488.65 33.45 A 16.952 16.952 0 0 0 485.782 38.857 Q 484.4 43.04 484.4 48.8 A 38.192 38.192 0 0 0 484.772 54.326 Q 485.658 60.365 488.65 63.85 A 13.948 13.948 0 0 0 498.453 68.732 A 19.529 19.529 0 0 0 500.1 68.8 A 22.136 22.136 0 0 0 509.113 66.819 A 30.053 30.053 0 0 0 513.8 64.2 Z M 580.3 22.2 L 556.7 46 L 583.1 74.9 L 572 74.9 L 546.1 46.1 L 569.5 22.2 L 580.3 22.2 Z M 545.2 0 L 545.2 74.9 L 536.8 74.9 L 536.8 1 L 545.2 0 Z M 687.8 60.9 L 687.8 34.7 A 16.812 16.812 0 0 0 684.955 31.402 A 14.366 14.366 0 0 0 682.5 29.65 Q 679.4 27.9 675.8 27.9 A 13.302 13.302 0 0 0 671.194 28.662 Q 667.893 29.871 665.719 33 A 14.461 14.461 0 0 0 665.65 33.1 A 17.203 17.203 0 0 0 663.504 37.662 Q 662.1 42.122 662.1 48.6 A 51.327 51.327 0 0 0 662.386 54.22 Q 663.023 59.981 665.075 63.587 A 14.587 14.587 0 0 0 665.35 64.05 A 11.434 11.434 0 0 0 668.408 67.4 Q 670.735 69.061 673.877 69.27 A 13.891 13.891 0 0 0 674.8 69.3 Q 681.678 69.3 686.875 62.235 A 29.862 29.862 0 0 0 687.8 60.9 Z M 238.7 47.2 L 238.7 40 L 273.7 40 L 273.7 47.2 L 238.7 47.2 Z M 722.9 45.1 L 750.3 45.1 A 32.122 32.122 0 0 0 749.905 40.293 Q 749.106 35.425 746.7 32.4 A 11.34 11.34 0 0 0 738.403 28.053 A 15.802 15.802 0 0 0 737.1 28 A 13.891 13.891 0 0 0 732.203 28.833 A 12.297 12.297 0 0 0 727.2 32.35 Q 724.207 35.776 723.261 41.715 A 34.624 34.624 0 0 0 722.9 45.1 Z M 445.5 62.2 L 445.5 48.7 L 437.9 48.7 Q 430.712 48.7 426.966 50.75 A 9.429 9.429 0 0 0 425.8 51.5 A 9.087 9.087 0 0 0 422.253 57.614 A 13.683 13.683 0 0 0 422.1 59.7 A 14.262 14.262 0 0 0 422.601 63.657 Q 423.884 68.095 428.46 69.274 A 15.022 15.022 0 0 0 432.2 69.7 Q 436.1 69.7 439.65 67.7 Q 443.2 65.7 445.5 62.2 Z" vector-effect="non-scaling-stroke"/></g></svg>
